<svg xmlns="http://www.w3.org/2000/svg" xmlns:xlink="http://www.w3.org/1999/xlink" width="500" zoomAndPan="magnify" viewBox="0 0 375 374.999991" height="500" preserveAspectRatio="xMidYMid meet" version="1.0"><defs><g/><clipPath id="abc5346e68"><path d="M 160.242188 73 L 214.992188 73 L 214.992188 121.683594 L 160.242188 121.683594 Z M 160.242188 73 " clip-rule="nonzero"/></clipPath><clipPath id="f1be6c871b"><path d="M 214.363281 93.296875 L 203.519531 74.519531 C 203.425781 74.351562 203.308594 74.195312 203.179688 74.054688 C 203.046875 73.910156 202.902344 73.78125 202.742188 73.667969 C 202.585938 73.554688 202.414062 73.460938 202.234375 73.386719 C 202.054688 73.308594 201.867188 73.253906 201.675781 73.214844 C 201.484375 73.179688 201.289062 73.164062 201.09375 73.171875 C 200.898438 73.175781 200.707031 73.203125 200.515625 73.246094 C 200.324219 73.292969 200.144531 73.359375 199.96875 73.445312 C 199.792969 73.53125 199.628906 73.636719 199.476562 73.757812 L 187.617188 83.144531 L 175.757812 73.757812 C 175.605469 73.636719 175.441406 73.53125 175.265625 73.445312 C 175.089844 73.359375 174.90625 73.292969 174.714844 73.246094 C 174.527344 73.203125 174.332031 73.175781 174.136719 73.171875 C 173.941406 73.164062 173.75 73.179688 173.554688 73.214844 C 173.363281 73.253906 173.179688 73.308594 172.996094 73.386719 C 172.816406 73.460938 172.648438 73.554688 172.488281 73.667969 C 172.328125 73.78125 172.183594 73.910156 172.054688 74.054688 C 171.921875 74.195312 171.808594 74.351562 171.710938 74.519531 L 160.871094 93.296875 C 160.722656 93.550781 160.621094 93.824219 160.5625 94.109375 C 160.507812 94.398438 160.496094 94.691406 160.535156 94.980469 C 160.574219 95.273438 160.660156 95.550781 160.792969 95.8125 C 160.925781 96.078125 161.097656 96.3125 161.304688 96.523438 L 185.699219 120.660156 C 185.953125 120.910156 186.246094 121.105469 186.578125 121.242188 C 186.910156 121.378906 187.257812 121.445312 187.617188 121.445312 C 187.976562 121.445312 188.320312 121.378906 188.652344 121.242188 C 188.984375 121.105469 189.277344 120.910156 189.53125 120.660156 L 213.925781 96.523438 C 214.136719 96.3125 214.308594 96.078125 214.4375 95.8125 C 214.570312 95.550781 214.65625 95.273438 214.695312 94.980469 C 214.734375 94.691406 214.726562 94.398438 214.667969 94.109375 C 214.613281 93.824219 214.511719 93.550781 214.363281 93.296875 Z M 214.363281 93.296875 " clip-rule="nonzero"/></clipPath><linearGradient x1="1.994437" gradientTransform="matrix(2.710396, 0, 0, 2.68203, 155.091523, 65.123198)" y1="12" x2="22.005577" gradientUnits="userSpaceOnUse" y2="12" id="5e0adec149"><stop stop-opacity="1" stop-color="rgb(92.89856%, 26.699829%, 14.099121%)" offset="0"/><stop stop-opacity="1" stop-color="rgb(92.78717%, 26.612854%, 14.060974%)" offset="0.0078125"/><stop stop-opacity="1" stop-color="rgb(92.562866%, 26.437378%, 13.981628%)" offset="0.015625"/><stop stop-opacity="1" stop-color="rgb(92.332458%, 26.25885%, 13.902283%)" offset="0.0234375"/><stop stop-opacity="1" stop-color="rgb(92.102051%, 26.081848%, 13.822937%)" offset="0.03125"/><stop stop-opacity="1" stop-color="rgb(91.873169%, 25.90332%, 13.743591%)" offset="0.0390625"/><stop stop-opacity="1" stop-color="rgb(91.642761%, 25.724792%, 13.66272%)" offset="0.046875"/><stop stop-opacity="1" stop-color="rgb(91.413879%, 25.546265%, 13.583374%)" offset="0.0546875"/><stop stop-opacity="1" stop-color="rgb(91.183472%, 25.367737%, 13.504028%)" offset="0.0625"/><stop stop-opacity="1" stop-color="rgb(90.953064%, 25.190735%, 13.424683%)" offset="0.0703125"/><stop stop-opacity="1" stop-color="rgb(90.724182%, 25.012207%, 13.343811%)" offset="0.078125"/><stop stop-opacity="1" stop-color="rgb(90.493774%, 24.833679%, 13.264465%)" offset="0.0859375"/><stop stop-opacity="1" stop-color="rgb(90.263367%, 24.655151%, 13.18512%)" offset="0.09375"/><stop stop-opacity="1" stop-color="rgb(90.034485%, 24.476624%, 13.105774%)" offset="0.101562"/><stop stop-opacity="1" stop-color="rgb(89.804077%, 24.299622%, 13.024902%)" offset="0.109375"/><stop stop-opacity="1" stop-color="rgb(89.575195%, 24.121094%, 12.945557%)" offset="0.117188"/><stop stop-opacity="1" stop-color="rgb(89.344788%, 23.942566%, 12.866211%)" offset="0.125"/><stop stop-opacity="1" stop-color="rgb(89.11438%, 23.764038%, 12.786865%)" offset="0.132812"/><stop stop-opacity="1" stop-color="rgb(88.885498%, 23.58551%, 12.705994%)" offset="0.140625"/><stop stop-opacity="1" stop-color="rgb(88.65509%, 23.408508%, 12.626648%)" offset="0.148438"/><stop stop-opacity="1" stop-color="rgb(88.426208%, 23.22998%, 12.547302%)" offset="0.15625"/><stop stop-opacity="1" stop-color="rgb(88.195801%, 23.051453%, 12.467957%)" offset="0.164062"/><stop stop-opacity="1" stop-color="rgb(87.965393%, 22.872925%, 12.387085%)" offset="0.171875"/><stop stop-opacity="1" stop-color="rgb(87.736511%, 22.694397%, 12.307739%)" offset="0.179688"/><stop stop-opacity="1" stop-color="rgb(87.506104%, 22.517395%, 12.228394%)" offset="0.1875"/><stop stop-opacity="1" stop-color="rgb(87.277222%, 22.338867%, 12.149048%)" offset="0.195312"/><stop stop-opacity="1" stop-color="rgb(87.046814%, 22.160339%, 12.068176%)" offset="0.203125"/><stop stop-opacity="1" stop-color="rgb(86.816406%, 21.981812%, 11.988831%)" offset="0.210937"/><stop stop-opacity="1" stop-color="rgb(86.587524%, 21.803284%, 11.909485%)" offset="0.21875"/><stop stop-opacity="1" stop-color="rgb(86.357117%, 21.626282%, 11.830139%)" offset="0.226562"/><stop stop-opacity="1" stop-color="rgb(86.126709%, 21.447754%, 11.749268%)" offset="0.234375"/><stop stop-opacity="1" stop-color="rgb(85.897827%, 21.269226%, 11.669922%)" offset="0.242188"/><stop stop-opacity="1" stop-color="rgb(85.667419%, 21.090698%, 11.590576%)" offset="0.25"/><stop stop-opacity="1" stop-color="rgb(85.438538%, 20.91217%, 11.51123%)" offset="0.257812"/><stop stop-opacity="1" stop-color="rgb(85.20813%, 20.735168%, 11.430359%)" offset="0.265625"/><stop stop-opacity="1" stop-color="rgb(84.977722%, 20.556641%, 11.351013%)" offset="0.273437"/><stop stop-opacity="1" stop-color="rgb(84.74884%, 20.378113%, 11.271667%)" offset="0.28125"/><stop stop-opacity="1" stop-color="rgb(84.518433%, 20.199585%, 11.192322%)" offset="0.289062"/><stop stop-opacity="1" stop-color="rgb(84.289551%, 20.021057%, 11.11145%)" offset="0.296875"/><stop stop-opacity="1" stop-color="rgb(84.059143%, 19.844055%, 11.032104%)" offset="0.304688"/><stop stop-opacity="1" stop-color="rgb(83.828735%, 19.665527%, 10.952759%)" offset="0.3125"/><stop stop-opacity="1" stop-color="rgb(83.599854%, 19.487%, 10.873413%)" offset="0.320312"/><stop stop-opacity="1" stop-color="rgb(83.369446%, 19.308472%, 10.792542%)" offset="0.328125"/><stop stop-opacity="1" stop-color="rgb(83.139038%, 19.129944%, 10.713196%)" offset="0.335937"/><stop stop-opacity="1" stop-color="rgb(82.910156%, 18.952942%, 10.63385%)" offset="0.34375"/><stop stop-opacity="1" stop-color="rgb(82.679749%, 18.774414%, 10.554504%)" offset="0.351562"/><stop stop-opacity="1" stop-color="rgb(82.450867%, 18.595886%, 10.473633%)" offset="0.359375"/><stop stop-opacity="1" stop-color="rgb(82.220459%, 18.417358%, 10.394287%)" offset="0.367187"/><stop stop-opacity="1" stop-color="rgb(81.990051%, 18.238831%, 10.314941%)" offset="0.375"/><stop stop-opacity="1" stop-color="rgb(81.761169%, 18.061829%, 10.235596%)" offset="0.382812"/><stop stop-opacity="1" stop-color="rgb(81.530762%, 17.883301%, 10.154724%)" offset="0.390625"/><stop stop-opacity="1" stop-color="rgb(81.30188%, 17.704773%, 10.075378%)" offset="0.398438"/><stop stop-opacity="1" stop-color="rgb(81.071472%, 17.526245%, 9.996033%)" offset="0.40625"/><stop stop-opacity="1" stop-color="rgb(80.841064%, 17.347717%, 9.916687%)" offset="0.414062"/><stop stop-opacity="1" stop-color="rgb(80.612183%, 17.170715%, 9.835815%)" offset="0.421875"/><stop stop-opacity="1" stop-color="rgb(80.381775%, 16.992188%, 9.75647%)" offset="0.429688"/><stop stop-opacity="1" stop-color="rgb(80.152893%, 16.81366%, 9.677124%)" offset="0.4375"/><stop stop-opacity="1" stop-color="rgb(79.922485%, 16.635132%, 9.597778%)" offset="0.445312"/><stop stop-opacity="1" stop-color="rgb(79.692078%, 16.456604%, 9.516907%)" offset="0.453125"/><stop stop-opacity="1" stop-color="rgb(79.463196%, 16.279602%, 9.437561%)" offset="0.460937"/><stop stop-opacity="1" stop-color="rgb(79.232788%, 16.101074%, 9.358215%)" offset="0.46875"/><stop stop-opacity="1" stop-color="rgb(79.00238%, 15.922546%, 9.277344%)" offset="0.476562"/><stop stop-opacity="1" stop-color="rgb(78.773499%, 15.744019%, 9.197998%)" offset="0.484375"/><stop stop-opacity="1" stop-color="rgb(78.543091%, 15.565491%, 9.118652%)" offset="0.492187"/><stop stop-opacity="1" stop-color="rgb(78.314209%, 15.388489%, 9.039307%)" offset="0.5"/><stop stop-opacity="1" stop-color="rgb(78.083801%, 15.209961%, 8.958435%)" offset="0.507812"/><stop stop-opacity="1" stop-color="rgb(77.853394%, 15.031433%, 8.879089%)" offset="0.515625"/><stop stop-opacity="1" stop-color="rgb(77.624512%, 14.852905%, 8.799744%)" offset="0.523437"/><stop stop-opacity="1" stop-color="rgb(77.394104%, 14.674377%, 8.720398%)" offset="0.53125"/><stop stop-opacity="1" stop-color="rgb(77.165222%, 14.49585%, 8.639526%)" offset="0.539062"/><stop stop-opacity="1" stop-color="rgb(76.934814%, 14.318848%, 8.560181%)" offset="0.546875"/><stop stop-opacity="1" stop-color="rgb(76.704407%, 14.14032%, 8.480835%)" offset="0.554687"/><stop stop-opacity="1" stop-color="rgb(76.475525%, 13.961792%, 8.401489%)" offset="0.5625"/><stop stop-opacity="1" stop-color="rgb(76.245117%, 13.783264%, 8.320618%)" offset="0.570312"/><stop stop-opacity="1" stop-color="rgb(76.016235%, 13.604736%, 8.241272%)" offset="0.578125"/><stop stop-opacity="1" stop-color="rgb(75.785828%, 13.427734%, 8.161926%)" offset="0.585938"/><stop stop-opacity="1" stop-color="rgb(75.55542%, 13.249207%, 8.082581%)" offset="0.59375"/><stop stop-opacity="1" stop-color="rgb(75.326538%, 13.070679%, 8.001709%)" offset="0.601562"/><stop stop-opacity="1" stop-color="rgb(75.09613%, 12.892151%, 7.922363%)" offset="0.609375"/><stop stop-opacity="1" stop-color="rgb(74.865723%, 12.713623%, 7.843018%)" offset="0.617188"/><stop stop-opacity="1" stop-color="rgb(74.636841%, 12.536621%, 7.763672%)" offset="0.625"/><stop stop-opacity="1" stop-color="rgb(74.406433%, 12.358093%, 7.6828%)" offset="0.632812"/><stop stop-opacity="1" stop-color="rgb(74.177551%, 12.179565%, 7.603455%)" offset="0.640625"/><stop stop-opacity="1" stop-color="rgb(73.947144%, 12.001038%, 7.524109%)" offset="0.648438"/><stop stop-opacity="1" stop-color="rgb(73.716736%, 11.82251%, 7.444763%)" offset="0.65625"/><stop stop-opacity="1" stop-color="rgb(73.487854%, 11.645508%, 7.363892%)" offset="0.664062"/><stop stop-opacity="1" stop-color="rgb(73.257446%, 11.46698%, 7.284546%)" offset="0.671875"/><stop stop-opacity="1" stop-color="rgb(73.028564%, 11.288452%, 7.2052%)" offset="0.679688"/><stop stop-opacity="1" stop-color="rgb(72.798157%, 11.109924%, 7.125854%)" offset="0.6875"/><stop stop-opacity="1" stop-color="rgb(72.567749%, 10.931396%, 7.044983%)" offset="0.695312"/><stop stop-opacity="1" stop-color="rgb(72.338867%, 10.754395%, 6.965637%)" offset="0.703125"/><stop stop-opacity="1" stop-color="rgb(72.108459%, 10.575867%, 6.886292%)" offset="0.710938"/><stop stop-opacity="1" stop-color="rgb(71.879578%, 10.397339%, 6.806946%)" offset="0.71875"/><stop stop-opacity="1" stop-color="rgb(71.64917%, 10.218811%, 6.726074%)" offset="0.726562"/><stop stop-opacity="1" stop-color="rgb(71.418762%, 10.040283%, 6.646729%)" offset="0.734375"/><stop stop-opacity="1" stop-color="rgb(71.18988%, 9.863281%, 6.567383%)" offset="0.742188"/><stop stop-opacity="1" stop-color="rgb(70.959473%, 9.684753%, 6.488037%)" offset="0.75"/><stop stop-opacity="1" stop-color="rgb(70.729065%, 9.506226%, 6.407166%)" offset="0.757813"/><stop stop-opacity="1" stop-color="rgb(70.500183%, 9.327698%, 6.32782%)" offset="0.765625"/><stop stop-opacity="1" stop-color="rgb(70.269775%, 9.14917%, 6.248474%)" offset="0.773438"/><stop stop-opacity="1" stop-color="rgb(70.040894%, 8.972168%, 6.169128%)" offset="0.78125"/><stop stop-opacity="1" stop-color="rgb(69.810486%, 8.79364%, 6.088257%)" offset="0.789063"/><stop stop-opacity="1" stop-color="rgb(69.580078%, 8.615112%, 6.008911%)" offset="0.796875"/><stop stop-opacity="1" stop-color="rgb(69.351196%, 8.436584%, 5.929565%)" offset="0.804688"/><stop stop-opacity="1" stop-color="rgb(69.120789%, 8.258057%, 5.85022%)" offset="0.8125"/><stop stop-opacity="1" stop-color="rgb(68.891907%, 8.081055%, 5.769348%)" offset="0.820313"/><stop stop-opacity="1" stop-color="rgb(68.661499%, 7.902527%, 5.690002%)" offset="0.828125"/><stop stop-opacity="1" stop-color="rgb(68.431091%, 7.723999%, 5.610657%)" offset="0.835938"/><stop stop-opacity="1" stop-color="rgb(68.202209%, 7.545471%, 5.531311%)" offset="0.84375"/><stop stop-opacity="1" stop-color="rgb(67.971802%, 7.366943%, 5.450439%)" offset="0.851563"/><stop stop-opacity="1" stop-color="rgb(67.74292%, 7.189941%, 5.371094%)" offset="0.859375"/><stop stop-opacity="1" stop-color="rgb(67.512512%, 7.011414%, 5.291748%)" offset="0.867188"/><stop stop-opacity="1" stop-color="rgb(67.282104%, 6.832886%, 5.212402%)" offset="0.875"/><stop stop-opacity="1" stop-color="rgb(67.053223%, 6.654358%, 5.131531%)" offset="0.882812"/><stop stop-opacity="1" stop-color="rgb(66.822815%, 6.47583%, 5.052185%)" offset="0.890625"/><stop stop-opacity="1" stop-color="rgb(66.592407%, 6.298828%, 4.972839%)" offset="0.898437"/><stop stop-opacity="1" stop-color="rgb(66.363525%, 6.1203%, 4.893494%)" offset="0.90625"/><stop stop-opacity="1" stop-color="rgb(66.133118%, 5.941772%, 4.812622%)" offset="0.914062"/><stop stop-opacity="1" stop-color="rgb(65.904236%, 5.763245%, 4.733276%)" offset="0.921875"/><stop stop-opacity="1" stop-color="rgb(65.673828%, 5.584717%, 4.653931%)" offset="0.929688"/><stop stop-opacity="1" stop-color="rgb(65.44342%, 5.407715%, 4.574585%)" offset="0.9375"/><stop stop-opacity="1" stop-color="rgb(65.214539%, 5.229187%, 4.493713%)" offset="0.945312"/><stop stop-opacity="1" stop-color="rgb(64.984131%, 5.050659%, 4.414368%)" offset="0.953125"/><stop stop-opacity="1" stop-color="rgb(64.755249%, 4.872131%, 4.335022%)" offset="0.960938"/><stop stop-opacity="1" stop-color="rgb(64.524841%, 4.693604%, 4.255676%)" offset="0.96875"/><stop stop-opacity="1" stop-color="rgb(64.294434%, 4.516602%, 4.174805%)" offset="0.976562"/><stop stop-opacity="1" stop-color="rgb(64.065552%, 4.338074%, 4.095459%)" offset="0.984375"/><stop stop-opacity="1" stop-color="rgb(63.835144%, 4.159546%, 4.016113%)" offset="0.992188"/><stop stop-opacity="1" stop-color="rgb(63.609314%, 3.98407%, 3.936768%)" offset="1"/></linearGradient></defs><g fill="#ffffff" fill-opacity="1"><g transform="translate(133.435026, 202.595437)"><g><path d="M 10.085938 -8.300781 C 27.949219 9.457031 61.996094 -2.730469 54.324219 -30.050781 C 51.90625 -38.5625 34.988281 -44.761719 30.367188 -35.410156 C 28.894531 -32.46875 29 -27.003906 31.3125 -24.585938 C 33.308594 -22.382812 38.878906 -23.328125 36.355469 -19.230469 C 34.359375 -16.078125 28.371094 -17.128906 25.742188 -18.386719 C 20.804688 -20.910156 18.703125 -26.582031 18.914062 -31.941406 C 19.4375 -42.449219 27.53125 -50.4375 37.089844 -53.273438 C 44.445312 -55.480469 45.390625 -63.464844 39.507812 -69.246094 C 30.890625 -77.546875 15.867188 -63.359375 10.824219 -56.742188 C 0.421875 -43.289062 -2.941406 -21.332031 10.085938 -8.300781 Z M 10.085938 -8.300781 "/></g></g></g><g fill="#ffffff" fill-opacity="1"><g transform="translate(184.49891, 202.595437)"><g><path d="M 10.085938 -8.300781 C 27.949219 9.457031 61.996094 -2.730469 54.324219 -30.050781 C 51.90625 -38.5625 34.988281 -44.761719 30.367188 -35.410156 C 28.894531 -32.46875 29 -27.003906 31.3125 -24.585938 C 33.308594 -22.382812 38.878906 -23.328125 36.355469 -19.230469 C 34.359375 -16.078125 28.371094 -17.128906 25.742188 -18.386719 C 20.804688 -20.910156 18.703125 -26.582031 18.914062 -31.941406 C 19.4375 -42.449219 27.53125 -50.4375 37.089844 -53.273438 C 44.445312 -55.480469 45.390625 -63.464844 39.507812 -69.246094 C 30.890625 -77.546875 15.867188 -63.359375 10.824219 -56.742188 C 0.421875 -43.289062 -2.941406 -21.332031 10.085938 -8.300781 Z M 10.085938 -8.300781 "/></g></g></g><g fill="#ffffff" fill-opacity="1"><g transform="translate(86.782686, 267.095433)"><g><path d="M 14.816406 -50.855469 C 18.808594 -43.605469 27.632812 -50.75 23.011719 -57.371094 C 18.28125 -64.199219 11.453125 -56.949219 14.816406 -50.855469 Z M 25.007812 43.5 C 30.683594 35.832031 32.574219 25.21875 33.519531 15.972656 C 34.042969 10.71875 34.148438 5.359375 34.042969 0.105469 C 34.042969 -1.574219 33.730469 -3.46875 33.9375 -5.148438 C 34.464844 -8.40625 36.355469 -9.667969 38.878906 -11.980469 C 41.820312 -14.710938 62.414062 -27.53125 57.054688 -31.835938 C 50.542969 -37.089844 37.195312 -25.847656 32.679688 -22.171875 C 32.046875 -26.480469 32.046875 -31.734375 29.527344 -35.515625 C 27.320312 -38.984375 19.648438 -38.878906 17.652344 -34.675781 C 16.179688 -31.734375 17.652344 -27.320312 18.179688 -24.167969 C 18.703125 -21.644531 20.488281 -17.230469 20.070312 -14.605469 C 19.753906 -12.398438 18.808594 -11.769531 17.230469 -10.085938 C 5.675781 1.996094 -7.460938 25.21875 1.367188 42.238281 C 5.675781 50.75 19.125 51.277344 25.007812 43.5 Z M 9.878906 36.882812 C 7.878906 34.148438 8.929688 27.53125 9.5625 24.691406 C 11.242188 17.023438 15.867188 10.296875 20.804688 4.308594 C 20.804688 5.777344 20.699219 7.25 20.699219 8.722656 C 20.382812 16.179688 19.648438 23.746094 17.128906 30.890625 C 16.179688 33.625 13.34375 41.398438 9.878906 36.882812 Z M 9.878906 36.882812 "/></g></g></g><g fill="#ffffff" fill-opacity="1"><g transform="translate(138.687126, 267.095433)"><g><path d="M 29.632812 -3.78125 C 39.71875 -11.664062 40.769531 -27.949219 36.25 -39.089844 C 35.621094 -52.117188 18.703125 -52.746094 10.71875 -46.128906 C 1.574219 -38.457031 -0.210938 -24.273438 3.046875 -13.34375 C 6.726562 -1.472656 19.125 4.308594 29.632812 -3.78125 Z M 25.636719 -17.96875 C 21.644531 -17.023438 22.277344 -21.539062 25.007812 -27.003906 C 25.636719 -28.371094 26.898438 -29.839844 28.160156 -30.890625 C 28.371094 -29.105469 28.789062 -18.703125 25.636719 -17.96875 Z M 25.636719 -17.96875 "/></g></g></g><g fill="#ffffff" fill-opacity="1"><g transform="translate(173.044823, 267.095433)"><g><path d="M 5.882812 -3.675781 C 10.085938 3.46875 15.234375 -0.839844 16.285156 -7.25 C 17.023438 -11.664062 17.023438 -16.285156 17.863281 -20.804688 C 18.597656 -24.796875 20.28125 -28.582031 22.382812 -32.152344 C 25.324219 -37.089844 29.316406 -41.609375 34.886719 -37.511719 C 37.195312 -35.832031 38.5625 -33.203125 41.820312 -33.308594 C 45.289062 -33.519531 46.757812 -36.671875 46.441406 -39.929688 C 45.707031 -45.917969 40.664062 -52.851562 34.675781 -54.324219 C 27.632812 -56.003906 22.277344 -50.4375 18.914062 -44.867188 C 18.179688 -48.964844 15.339844 -58.210938 9.351562 -55.691406 C 5.777344 -54.21875 4.625 -48.019531 3.992188 -44.761719 C 1.574219 -32.46875 -0.628906 -14.921875 5.882812 -3.675781 Z M 5.882812 -3.675781 "/></g></g></g><g fill="#ffffff" fill-opacity="1"><g transform="translate(214.547311, 267.095433)"><g><path d="M 30.683594 -0.210938 C 33.730469 -1.472656 33.625 -5.988281 33.835938 -8.617188 C 34.886719 -17.230469 34.570312 -25.953125 34.464844 -34.570312 C 34.359375 -42.554688 34.359375 -50.542969 34.253906 -58.527344 C 34.253906 -63.253906 31.207031 -75.128906 24.0625 -68.613281 C 18.703125 -63.78125 22.90625 -52.957031 20.699219 -46.96875 C 19.332031 -43.5 14.394531 -42.765625 11.453125 -39.929688 C 6.621094 -35.304688 2.835938 -29 1.785156 -22.382812 C -0.210938 -9.773438 11.875 5.148438 24.691406 -4.625 C 25.324219 -2.101562 27.632812 0.945312 30.683594 -0.210938 Z M 15.550781 -19.332031 C 12.398438 -24.167969 16.179688 -31.734375 20.070312 -34.78125 C 20.175781 -30.785156 21.75 -25.847656 21.121094 -22.066406 C 20.804688 -20.070312 17.757812 -16.078125 15.550781 -19.332031 Z M 15.550781 -19.332031 "/></g></g></g><g fill="#ffffff" fill-opacity="1"><g transform="translate(244.702193, 267.095433)"><g><path d="M 39.191406 44.027344 C 42.449219 39.71875 41.925781 34.042969 41.714844 29 C 41.398438 23.746094 41.820312 18.28125 41.714844 12.925781 C 41.714844 1.050781 41.398438 -10.929688 40.558594 -22.800781 C 40.347656 -26.6875 41.292969 -34.988281 37.195312 -37.300781 C 33.730469 -39.191406 31.3125 -36.144531 29.316406 -33.625 C 27.53125 -31.3125 18.703125 -11.453125 16.285156 -22.800781 C 15.339844 -27.320312 16.390625 -32.785156 17.335938 -37.195312 C 18.28125 -41.1875 22.171875 -47.492188 17.757812 -50.644531 C 8.511719 -57.371094 3.046875 -39.71875 2.101562 -34.042969 C 0.839844 -25.847656 1.574219 -15.761719 5.675781 -8.40625 C 10.085938 -0.316406 19.859375 2.101562 26.898438 -4.625 C 24.796875 2.417969 25.742188 51.695312 39.191406 44.027344 Z M 39.191406 44.027344 "/></g></g></g><g clip-path="url(#abc5346e68)"><g clip-path="url(#f1be6c871b)"><path fill="url(#5e0adec149)" d="M 160.496094 73.164062 L 160.496094 121.445312 L 214.734375 121.445312 L 214.734375 73.164062 Z M 160.496094 73.164062 " fill-rule="nonzero"/></g></g></svg>